<?xml version="1.0" encoding="UTF-8" standalone="no"?>
<svg width="54px" height="56px" viewBox="0 0 54 56" version="1.1" xmlns="http://www.w3.org/2000/svg" xmlns:xlink="http://www.w3.org/1999/xlink">
    <!-- Generator: Sketch 3.8.3 (29802) - http://www.bohemiancoding.com/sketch -->
    <title>Group</title>
    <desc>Created with Sketch.</desc>
    <defs></defs>
    <g id="Welcome" stroke="none" stroke-width="1" fill="none" fill-rule="evenodd">
        <g id="Dashboard-Landing-State---With-Media" transform="translate(-568.000000, -269.000000)" fill="#D8D8D8">
            <g id="Group-22" transform="translate(257.000000, 244.000000)">
                <g id="Group-3-Copy-3" transform="translate(249.000000, 0.000000)">
                    <g id="Group" transform="translate(62.000000, 25.000000)">
                        <ellipse id="Oval-17" cx="26.7589286" cy="25.5122549" rx="5.51020408" ry="5.49019608"></ellipse>
                        <path d="M2.20408163,55.3297879 L2.00050531,55.3297879 C0.890915495,55.3297879 0,54.4338256 0,53.3286001 L0,17.5265172 C0,16.4125109 0.783459036,15.0873266 1.74990473,14.5470227 L25.5600442,1.23565956 C26.5220678,0.697827963 28.081346,0.705862679 29.0329125,1.2591275 L51.8465518,14.5235548 C52.7978377,15.0766565 53.5679861,16.4174832 53.5660997,17.5180108 L53.5040534,53.7156519 C53.502344,54.7129373 52.7607735,55.5437548 51.7959184,55.6866304 L51.7959184,55.7083333 L50.8746811,55.7083333 L51.5001324,55.7083333 C51.6006179,55.7083333 51.6993856,55.7009249 51.7959184,55.6866304 Z M5.25191327,50.5098039 L5.25191327,18.6976882 L27.309949,6.15863944 L48.317602,18.6976882 L48.2583991,50.5098039 L5.25191327,50.5098039 Z" id="Combined-Shape"></path>
                    </g>
                </g>
            </g>
        </g>
    </g>
</svg>