<?xml version="1.0" encoding="UTF-8" standalone="no"?>
<svg width="14px" height="16px" viewBox="0 0 14 16" version="1.1" xmlns="http://www.w3.org/2000/svg" xmlns:xlink="http://www.w3.org/1999/xlink">
    <!-- Generator: Sketch 39 (31667) - http://www.bohemiancoding.com/sketch -->
    <title>clip solid copy 2</title>
    <desc>Created with Sketch.</desc>
    <defs></defs>
    <g id="Welcome" stroke="none" stroke-width="1" fill="none" fill-rule="evenodd">
        <g id="Dashboard-Landing-State---With-Media" transform="translate(-920.000000, -1252.000000)" fill="#FFFFFF">
            <g id="Group-21" transform="translate(244.000000, 490.000000)">
                <g id="Group-14" transform="translate(254.000000, 0.000000)">
                    <g id="Group-23" transform="translate(0.000000, 681.000000)">
                        <g id="Group-2" transform="translate(19.000000, 76.000000)">
                            <g id="Group-4">
                                <g id="Group-14" transform="translate(333.000000, 0.000000)">
                                    <path d="M77.1332043,8.60164241 L75.3384689,8.60164241 L77.3297306,11.8680889 L79.124466,11.8680889 L77.1332043,8.60164241 Z M78.4694743,8.60164241 L79.8049904,8.60164241 C80.6316414,8.60164241 81.3017745,9.27845223 81.3017745,10.1010239 L81.3017745,11.8680889 L80.460736,11.8680889 L78.4694743,8.60164241 Z M74.0021988,8.60164241 L72.2074634,8.60164241 L74.1987251,11.8680889 L75.9934605,11.8680889 L74.0021988,8.60164241 Z M70.9433946,8.72008065 C70.4071083,8.94803978 70.0301549,9.48051334 70.0301549,10.1010239 L70.0301549,11.8680889 L72.8624551,11.8680889 L70.9433946,8.72008065 Z M72.0306328,7.29506382 C72.3109924,6.53249759 73.0437811,5.98848522 73.9001858,5.98848522 L81.8151511,5.98848522 C82.9149863,5.98848522 83.8065788,6.88116137 83.8065788,7.98276755 L83.8065788,16.4066995 C83.8065788,17.2461842 83.2870676,17.9645204 82.5541766,18.2586999 L82.5541766,7.29506382 L72.0306328,7.29506382 Z M77.8576685,18.4009819 L73.9001858,18.4009819 C72.8003507,18.4009819 71.9087582,17.5083057 71.9087582,16.4066995 L71.9087582,12.1947335 L71.9087582,18.4009819 L77.8576685,18.4009819 Z M70.0301549,13.1746675 L81.3017745,13.1746675 L81.3017745,18.8543905 C81.3017745,19.686385 80.6304388,20.3608498 79.8049904,20.3608498 L71.526939,20.3608498 C70.7002879,20.3608498 70.0301549,19.6976718 70.0301549,18.8543905 L70.0301549,13.1746675 Z M72.5349592,15.1345354 L78.7969701,15.1345354 L78.7969701,16.441114 L72.5349592,16.441114 L72.5349592,15.1345354 Z" id="clip-solid-copy-2"></path>
                                </g>
                            </g>
                        </g>
                    </g>
                </g>
            </g>
        </g>
    </g>
</svg>