<?xml version="1.0" encoding="UTF-8" standalone="no"?>
<svg width="14px" height="16px" viewBox="0 0 14 16" version="1.1" xmlns="http://www.w3.org/2000/svg" xmlns:xlink="http://www.w3.org/1999/xlink">
    <!-- Generator: Sketch 39 (31667) - http://www.bohemiancoding.com/sketch -->
    <title>FB-fLogo-online</title>
    <desc>Created with Sketch.</desc>
    <defs></defs>
    <g id="Welcome" stroke="none" stroke-width="1" fill="none" fill-rule="evenodd">
        <g id="Dashboard-Landing-State---With-Media" transform="translate(-587.000000, -1252.000000)" fill="#FFFFFF">
            <g id="Group-21" transform="translate(244.000000, 490.000000)">
                <g id="Group-14" transform="translate(254.000000, 0.000000)">
                    <g id="Group-23" transform="translate(0.000000, 681.000000)">
                        <g id="Group-2" transform="translate(19.000000, 76.000000)">
                            <g id="Group-4">
                                <g id="Group-13">
                                    <g id="FB-fLogo-online" transform="translate(70.030155, 5.988485)">
                                        <g id="White">
                                            <g id="_1024">
                                                <path d="M13.016299,0 L0.759721346,0 C0.339567324,0 7.99360578e-15,0.353972007 7.99360578e-15,0.79130653 L7.99360578e-15,13.5532518 C7.99360578e-15,13.9904463 0.339567324,14.3445724 0.759721346,14.3445724 L7.35868222,14.3445724 L7.35868222,8.78311166 L5.55604253,8.78311166 L5.55604253,6.62553398 L7.35908582,6.62553398 L7.35908582,5.02803025 C7.35908582,3.1751579 8.44505549,2.17147377 10.0324386,2.17147377 C10.7928326,2.17147377 11.4464055,2.22516702 11.6369076,2.25151635 L11.6369076,4.1887598 L10.53587,4.1884096 C9.67255638,4.1884096 9.51124845,4.61557421 9.51124845,5.24239701 L9.51124845,6.62553398 L11.564393,6.62553398 L11.296264,8.78311166 L9.51124845,8.78311166 L9.51124845,14.3445724 L13.016299,14.3445724 C13.4361839,14.3445724 13.7761548,13.9904463 13.7761548,13.5532518 L13.7761548,0.79130653 C13.7761548,0.353972007 13.4361839,0 13.016299,0 L13.016299,0 Z" id="_10241"></path>
                                            </g>
                                        </g>
                                    </g>
                                </g>
                            </g>
                        </g>
                    </g>
                </g>
            </g>
        </g>
    </g>
</svg>