<?xml version="1.0" encoding="UTF-8" standalone="no"?>
<svg width="56px" height="56px" viewBox="0 0 56 56" version="1.1" xmlns="http://www.w3.org/2000/svg" xmlns:xlink="http://www.w3.org/1999/xlink">
    <!-- Generator: Sketch 3.8.3 (29802) - http://www.bohemiancoding.com/sketch -->
    <title>images outline</title>
    <desc>Created with Sketch.</desc>
    <defs></defs>
    <g id="Welcome" stroke="none" stroke-width="1" fill="none" fill-rule="evenodd" opacity="0.3">
        <g id="Dashboard-Landing-State---With-Media" transform="translate(-1065.000000, -270.000000)" fill="#FFFFFF">
            <g id="Group-22" transform="translate(257.000000, 244.000000)">
                <g id="Group-3-Copy-5" transform="translate(747.000000, 0.000000)">
                    <g id="Group-24" transform="translate(60.000000, 26.000000)">
                        <path d="M10.3333333,9.33333333 L10.3333333,2.00520833 C10.3333333,0.897762351 11.2238911,0 12.3385417,0 L54.9947917,0 C56.1022376,0 57,0.890557766 57,2.00520833 L57,44.6614583 C57,45.7689043 56.1094422,46.6666667 54.9947917,46.6666667 L52.3333333,46.6666667 L52.3333333,4.66666667 L10.3333333,4.66666667 L10.3333333,9.33333333 L45.6614583,9.33333333 C46.7689043,9.33333333 47.6666667,10.2238911 47.6666667,11.3385417 L47.6666667,53.9947917 C47.6666667,55.1022376 46.7761089,56 45.6614583,56 L3.00520833,56 C1.89776235,56 1,55.1094422 1,53.9947917 L1,11.3385417 C1,10.2310957 1.89055777,9.33333333 3.00520833,9.33333333 L10.3333333,9.33333333 Z M5.66666667,14 L43,14 L43,51.3333333 L5.66666667,51.3333333 L5.66666667,14 Z M15,30.3333333 C17.5773288,30.3333333 19.6666667,28.2439955 19.6666667,25.6666667 C19.6666667,23.0893378 17.5773288,21 15,21 C12.4226712,21 10.3333333,23.0893378 10.3333333,25.6666667 C10.3333333,28.2439955 12.4226712,30.3333333 15,30.3333333 Z M21.9797248,39.7281889 L17.3625206,37.3333333 L10.3226522,44.3333333 L38.3226522,44.3333333 L28.9630242,30.3333333 L21.9797248,39.7281889 Z" id="images-outline"></path>
                    </g>
                </g>
            </g>
        </g>
    </g>
</svg>