<?xml version="1.0" encoding="UTF-8" standalone="no"?>
<svg width="12px" height="12px" viewBox="0 0 12 12" version="1.1" xmlns="http://www.w3.org/2000/svg" xmlns:xlink="http://www.w3.org/1999/xlink">
    <!-- Generator: Sketch 39 (31667) - http://www.bohemiancoding.com/sketch -->
    <title>Group 18</title>
    <desc>Created with Sketch.</desc>
    <defs></defs>
    <g id="Welcome" stroke="none" stroke-width="1" fill="none" fill-rule="evenodd">
        <g id="Dashboard-Landing-State---With-Media" transform="translate(-285.000000, -693.000000)" fill="#FFFFFF">
            <g id="Group-21" transform="translate(244.000000, 490.000000)">
                <g id="Group-20">
                    <g id="Group-18" transform="translate(25.000000, 190.000000)">
                        <path d="M26.805523,13 C27.4652146,13 28,13.5389274 28,14.1944771 L28,23.8055229 C28,24.4652144 27.4610728,25 26.805523,25 L17.194477,25 C16.5347854,25 16,24.4610726 16,23.8055229 L16,14.1944771 C16,13.5347856 16.5389272,13 17.194477,13 L18.4,13 L26.805523,13 Z M26.8,14.2 L26.8,23.8 L17.2,23.8 L17.2,14.2 L26.8,14.2 Z" id="images-outline"></path>
                        <g id="Group" transform="translate(19.000000, 16.000000)">
                            <path d="M0.173330357,6.14704524 L0.119270089,6.80502717 L0.713197768,6.80502717 L5.31122545,6.80502717 L5.90516518,6.80502717 C5.84727188,6.16304348 5.9754375,4.2367072 3.01198259,4.2367072 C1.30141205,4.2367072 0.293504464,4.91343505 0.173330357,6.14704524 Z" id="Shape"></path>
                            <path d="M4.57455937,1.71394239 C4.52782768,0.809592799 3.85615446,0.127652038 3.01221161,0.127652038 C2.16848571,0.127652038 1.49670402,0.809592799 1.44983973,1.71387819 C1.30231607,4.5619233 4.72225179,4.5650947 4.57455937,1.71394239 L4.57455937,1.71394239 Z M2.04132054,1.74957249 C2.1091942,0.439630435 3.9153375,0.441967255 3.98309062,1.74957249 C4.08459375,3.70610768 1.93969687,3.70813635 2.04132054,1.74957249 L2.04132054,1.74957249 Z" id="Shape"></path>
                            <polygon id="Path-52" points="2.625 0.388888889 1.875 1.55555556 2.25 3.11111111 3.375 3.5 4.5 2.33333333 4.125 1.16666667 3.375 0.388888889"></polygon>
                        </g>
                    </g>
                </g>
            </g>
        </g>
    </g>
</svg>