<?xml version="1.0" encoding="UTF-8" standalone="no"?>
<svg width="14px" height="16px" viewBox="0 0 14 16" version="1.1" xmlns="http://www.w3.org/2000/svg" xmlns:xlink="http://www.w3.org/1999/xlink">
    <!-- Generator: Sketch 39 (31667) - http://www.bohemiancoding.com/sketch -->
    <title>clip solid</title>
    <desc>Created with Sketch.</desc>
    <defs></defs>
    <g id="Welcome" stroke="none" stroke-width="1" fill="none" fill-rule="evenodd">
        <g id="Dashboard-Landing-State---With-Media" transform="translate(-1086.000000, -1252.000000)" fill="#FFFFFF">
            <g id="Group-21" transform="translate(244.000000, 490.000000)">
                <g id="Group-14" transform="translate(254.000000, 0.000000)">
                    <g id="Group-23" transform="translate(0.000000, 681.000000)">
                        <g id="Group-2" transform="translate(19.000000, 76.000000)">
                            <g id="Group-4">
                                <g id="Group-15" transform="translate(499.000000, 0.000000)">
                                    <path d="M79.0081192,5.98848522 L76.4817854,5.98848522 L78.9615417,10.3001946 L81.4878755,10.3001946 L79.0081192,5.98848522 Z M80.6147125,5.98848522 L81.8033685,5.98848522 C82.909711,5.98848522 83.8065788,6.88187419 83.8065788,7.99286739 L83.8065788,10.3001946 L83.0944688,10.3001946 L80.6147125,5.98848522 Z M74.8751921,5.98848522 L72.3488582,5.98848522 L74.8286145,10.3001946 L77.3549484,10.3001946 L74.8751921,5.98848522 Z M70.9328372,6.31984537 C70.3904929,6.67855416 70.0301549,7.29393345 70.0301549,7.99286739 L70.0301549,10.3001946 L73.2220212,10.3001946 L70.9328372,6.31984537 Z M70.0301549,11.737431 L83.8065788,11.737431 L83.8065788,18.3607893 C83.8065788,19.4653922 82.9026692,20.3608498 81.8033685,20.3608498 L72.0333652,20.3608498 C70.9270227,20.3608498 70.0301549,19.4704723 70.0301549,18.3607893 L70.0301549,11.737431 Z M72.7854397,13.8932857 L81.051294,13.8932857 L81.051294,15.3305222 L72.7854397,15.3305222 L72.7854397,13.8932857 Z" id="clip-solid"></path>
                                </g>
                            </g>
                        </g>
                    </g>
                </g>
            </g>
        </g>
    </g>
</svg>