<?xml version="1.0" encoding="UTF-8" standalone="no"?>
<svg width="65px" height="57px" viewBox="0 0 65 57" version="1.1" xmlns="http://www.w3.org/2000/svg" xmlns:xlink="http://www.w3.org/1999/xlink">
    <!-- Generator: Sketch 3.8.3 (29802) - http://www.bohemiancoding.com/sketch -->
    <title>cloud upload outline</title>
    <desc>Created with Sketch.</desc>
    <defs></defs>
    <g id="Welcome" stroke="none" stroke-width="1" fill="none" fill-rule="evenodd" opacity="0.3">
        <g id="Dashboard-Landing-State---With-Media" transform="translate(-812.000000, -270.000000)" fill="#FFFFFF">
            <g id="Group-22" transform="translate(257.000000, 244.000000)">
                <g id="Group-3-Copy-4" transform="translate(498.000000, 0.000000)">
                    <g id="Group-25" transform="translate(47.000000, 26.000000)">
                        <path d="M39.6915632,30.0647012 L39.6915632,53.8673916 C39.6915632,55.3562419 40.8985148,56.5631935 42.3873651,56.5631935 C43.8762155,56.5631935 45.0831671,55.3562419 45.0831671,53.8673916 L45.0831671,30.0548177 L50.1352803,34.3425618 C51.2704201,35.3059585 52.9716199,35.1667331 53.9350165,34.0315934 C54.8984132,32.8964536 54.7591879,31.1952538 53.6240481,30.2318572 L44.2865576,22.3071001 C43.301628,21.3273273 41.7130147,21.2521047 40.6375084,22.1698335 L31.2086802,30.2154466 C30.0761126,31.1818658 29.9414227,32.8834308 30.9078419,34.0159983 C31.8742611,35.1485659 33.575826,35.2832558 34.7083936,34.3168366 L39.6915632,30.0647012 Z M25.452337,41.5962248 C19.9071507,41.5962248 15.391604,37.0819955 15.391604,31.5381875 C15.391604,27.4192695 17.8528603,23.7669281 21.6386671,22.2244041 C22.8017959,21.7504882 23.4835456,20.5361354 23.2825008,19.2963588 C23.1746173,18.6310774 23.1204683,17.9857098 23.1204683,17.3690522 C23.1204683,10.766112 28.495658,5.39160399 35.0979166,5.39160399 C39.3389984,5.39160399 43.3015466,7.68372004 45.4417456,11.3561069 C46.2136503,12.6806252 47.9332458,13.0956913 49.2243648,12.2691338 C50.529807,11.4334068 52.0542036,10.9853931 53.6045972,10.9853931 C58.0737827,10.9853931 61.7135696,14.6258069 61.7135696,19.0970613 C61.7135696,19.2784755 61.7073832,19.4671604 61.6946681,19.6684843 C61.6229909,20.8033731 62.2711601,21.8611963 63.3148535,22.3126544 C66.9859859,23.9006326 69.3831263,27.5330096 69.3831263,31.5381875 C69.3831263,37.0819955 64.8675796,41.5962248 59.3223933,41.5962248 C57.8335429,41.5962248 56.6265913,42.8031764 56.6265913,44.2920267 C56.6265913,45.7808771 57.8335429,46.9878287 59.3223933,46.9878287 C67.8449281,46.9878287 74.7747303,40.0600484 74.7747303,31.5381875 C74.7747303,25.3784276 71.0959991,19.8040614 65.4553653,17.3641594 L64.3851094,19.8384069 L67.0755508,20.0083295 C67.0952771,19.6959958 67.1051736,19.394152 67.1051736,19.0970613 C67.1051736,11.6483141 61.0516913,5.59378914 53.6045972,5.59378914 C51.021713,5.59378914 48.4888611,6.33818355 46.3173986,7.72832537 L47.7708817,9.99872959 L50.1000179,8.64135224 C46.9968048,3.31652071 41.2632935,0 35.0979166,0 C25.5181104,0 17.7288643,7.78825824 17.7288643,17.3690522 C17.7288643,18.2810244 17.8071811,19.2144323 17.9604189,20.1593991 L20.6214599,19.727879 L19.6042526,17.2313538 C13.7904727,19.6001739 10,25.2249844 10,31.5381875 C10,40.0600484 16.9298022,46.9878287 25.452337,46.9878287 C26.9411874,46.9878287 28.148139,45.7808771 28.148139,44.2920267 C28.148139,42.8031764 26.9411874,41.5962248 25.452337,41.5962248 Z" id="cloud-upload-outline"></path>
                    </g>
                </g>
            </g>
        </g>
    </g>
</svg>